# xmcd
#
# Track frame offsets: 
#        150
#        17478
#        34227
#        56918
#        73222
#        91810
#        111186
#        127660
#        144221
#        160815
#        178554
#        191887
#        209821
#        228361
#        246016
#        264012
#        283693
#        318101
#
# Disc length: 4421 seconds
#
# Revision: 1
# Processed by: cddbd v1.5.2PL0 Copyright (c) Steve Scherf et al.
# Submitted via: ExactAudioCopy v0.95b4
#
DISCID=f9114312
DTITLE=Various Artist - PrimeCuts - HP200910 - 030609
DYEAR=2009
DGENRE=Top 40
TTITLE0=Buckcherry - Don't Go Away
TTITLE1=Greg London - Everything I own
TTITLE2=Journey - Where Did I Lose Your Love
TTITLE3=Britney Spears - If U Seek Amy [Radio]
TTITLE4=David Cook - Come Back To Me [Radio Edit]
TTITLE5=Paula Deanda - Roll The Credits [Radio Edit]
TTITLE6=Black Eyed Peas - Boom Boom Pow [Radio Edit]
TTITLE7=Toby Keith - Lost You Anyway [Album Version]
TTITLE8=Jonathan Singleton and the Grove - Livin' In Paradise
TTITLE9=Miley Cyrus - The Climb [Guitar Intro]
TTITLE10=Tracy Lawrence - Up To Him
TTITLE11=Queensryche - If I Were King [Radio Edit]
TTITLE12=Coldplay - Life In Technicolour II
TTITLE13=Shinedown - Sound Of Madness
TTITLE14=ACDC - Big Jack
TTITLE15=U2 - Magnificent [Single Edit]
TTITLE16=Kid Cudi vs. Crookers - Day 'N' Nite [Mobin Master Remix]
TTITLE17=Kutless - To Know That You're Alive [Radio Edit]
EXTD=
EXTT0=
EXTT1=
EXTT2=
EXTT3=
EXTT4=
EXTT5=
EXTT6=
EXTT7=
EXTT8=
EXTT9=
EXTT10=
EXTT11=
EXTT12=
EXTT13=
EXTT14=
EXTT15=
EXTT16=
EXTT17=
PLAYORDER=
